<svg width="52" height="37" viewBox="0 0 52 37" fill="none" xmlns="http://www.w3.org/2000/svg">
<path d="M21.5882 27.25L18.647 17.0417" stroke="white" stroke-linecap="round"/>
<path d="M15.7059 1L9.82355 9.75M36.2941 1L42.1765 9.75" stroke="white" stroke-linecap="round"/>
<path d="M30.4116 27.25L33.3528 17.0417" stroke="white" stroke-linecap="round"/>
<path d="M3.94104 9.75V9.75C5.22112 9.75 5.86116 9.75 6.35138 10.0607C6.47575 10.1395 6.59104 10.2318 6.69515 10.3359C7.10549 10.7463 7.24544 11.3709 7.52535 12.62L12.0642 32.8747C12.4 34.3732 12.5679 35.1224 13.1159 35.5612C13.6639 36 14.4318 36 15.9674 36H36.0323C37.568 36 38.3358 36 38.8838 35.5612C39.4318 35.1224 39.5997 34.3732 39.9355 32.8747L44.4744 12.62C44.7543 11.3709 44.8942 10.7463 45.3046 10.3359C45.4087 10.2318 45.524 10.1395 45.6483 10.0607C46.1386 9.75 46.7786 9.75 48.0587 9.75V9.75" stroke="white" stroke-linecap="round"/>
<path d="M1 9.75H51" stroke="white" stroke-linecap="round"/>
</svg>
