<svg width="352" height="20" viewBox="0 0 352 20" fill="none" xmlns="http://www.w3.org/2000/svg">
<circle cx="131" cy="10" r="10" fill="#D9D9D9"/>
<circle cx="176" cy="10" r="10" fill="#D9D9D9"/>
<circle cx="221" cy="10" r="10" fill="#D9D9D9"/>
<circle cx="266" cy="10" r="10" fill="#D9D9D9"/>
<circle cx="86" cy="10" r="10" fill="#FFC2C7"/>
<path d="M351.707 10.7071C352.098 10.3166 352.098 9.68342 351.707 9.29289L345.343 2.92893C344.953 2.53841 344.319 2.53841 343.929 2.92893C343.538 3.31946 343.538 3.95262 343.929 4.34315L349.586 10L343.929 15.6569C343.538 16.0474 343.538 16.6805 343.929 17.0711C344.319 17.4616 344.953 17.4616 345.343 17.0711L351.707 10.7071ZM301 11H351V9H301V11Z" fill="#FFC2C7"/>
<path d="M0.292892 9.29289C-0.0976295 9.68342 -0.0976295 10.3166 0.292892 10.7071L6.65685 17.0711C7.04738 17.4616 7.68054 17.4616 8.07107 17.0711C8.46159 16.6805 8.46159 16.0474 8.07107 15.6569L2.41422 10L8.07107 4.34315C8.46159 3.95262 8.46159 3.31946 8.07107 2.92893C7.68054 2.53841 7.04738 2.53841 6.65685 2.92893L0.292892 9.29289ZM51 9L1 9V11L51 11V9Z" fill="#D9D9D9"/>
</svg>
